<svg version="1" xmlns="http://www.w3.org/2000/svg" width="2666.667" height="2666.667" viewBox="0 0 2000.000000 2000.000000"><path d="M607.7 55.6c-.1.1-3.1.4-6.7.8-39.2 3.6-77.8 20-119 50.4-26.8 19.9-49.3 41-83.5 78.6-.6.6-3.7 4.2-7 8.1-3.3 3.8-6.4 7.5-7 8.1-1.5 1.7-3.2 3.9-12.3 15.4-4.6 5.8-8.9 11.3-9.7 12.2-7.8 9.5-31.6 44.3-40.2 58.8-12.3 20.6-24.3 44.3-31.3 61.5-2.8 7.1-5.5 13.7-5.9 14.5-1.5 3.1-11.6 36.1-12.5 41-.3 1.4-.8 3.6-1.1 5-.8 3.6-4.5 24.8-5.1 29.5-1.3 10.9-1.4 39.2 0 45.6 3.2 15.5 12.9 28.5 25.6 34.6 8.5 4 14 5.7 15 4.7.4-.5 3.9-9.2 7.8-19.4 22.5-59 43.7-101 71.3-141 24.4-35.4 58.2-65.3 87.9-77.7 23.4-9.8 49.7-13.3 67-8.9 31.6 8 65.1 43.3 97.1 102.3 4.5 8.2 20.9 41 20.9 41.7 0 .4 14 31.3 20.5 45.1 2 4.4 4.9 10.5 6.2 13.5 1.4 3 4.6 9.8 7 15 2.5 5.2 10.5 22.3 17.8 38 16.7 35.9 20.6 44.1 29 61.5 3.7 7.7 9.3 19.6 12.5 26.5 3.2 6.9 7.4 15.9 9.3 20 11.3 24.3 29.7 67.9 48.6 115.5 6.2 15.4 11.6 28.9 12 30 .5 1.1 1.6 3.6 2.4 5.5.8 1.9 5.6 13.7 10.6 26.3 7.5 18.7 35.7 86.1 40.6 97.2.8 1.6 4.4 10.2 8 19 3.7 8.8 7.5 17.8 8.6 20.1 1 2.2 2.8 6.5 3.9 9.5 1.2 3 2.8 6.7 3.5 8.4.8 1.6 6.8 15.8 13.4 31.4l12 28.4-25.4 51.1c-24.7 49.4-30.6 61-45 87.5-8.7 16.1-8.9 16.5-9.5 17.1-.3.3-1.8 3-3.4 6-2.5 4.6-8.6 15.3-18.7 32.9-22.6 39-63.7 104.5-92.2 147.1-37 55.2-74.3 108.8-92.6 133-13.3 17.6-23 29.8-38.6 48.9-2.2 2.7-22 25.4-28.1 32.3-6.4 7.1-46.7 47-52.4 51.8-3 2.5-7.7 6.5-10.4 9-2.8 2.5-9.1 7.6-14.1 11.5-4.9 3.8-9.2 7.2-9.5 7.6-.9 1.1-28.1 19.8-33.4 22.9-6.5 3.9-8.5 5.1-11.6 7.1-3 2-32.5 16.9-33.3 16.9-.4 0-3 1.1-5.9 2.4-16.3 7.4-48.5 16.2-68.3 18.7-10.7 1.4-39.6 1.8-51 .7-26.8-2.5-53.6-10-78-21.8-4.4-2.2-8.5-4-9.1-4.2-1-.2-24.2 22-79.9 76.7-4.5 4.4-23 22.5-41.1 40.1-18.1 17.7-42 41.1-53.2 52l-20.3 19.9 15.8 6.7c27.2 11.6 54.8 21.1 76.3 26.3 13.3 3.3 16.2 3.9 27.5 6 12.5 2.3 13.7 2.5 19.5 3 3 .3 7.1.8 9 1 13 1.6 44 2.2 56.5 1.1 2.8-.3 8.8-.7 13.5-1.1 7.6-.6 17-1.7 24-2.9 1.4-.3 4.3-.7 6.5-1 2.2-.3 5.1-.8 6.5-1 1.4-.3 3.6-.7 5-1 121.2-23 245.3-102.4 364.2-232.9 4.6-5 9-9.8 9.8-10.7.8-.9 5.8-6.5 11-12.5 5.2-6.1 9.7-11.2 10-11.5.7-.6 15.2-18 20-24 1.9-2.4 6-7.4 9-11.1 3-3.6 9.1-11.3 13.5-17 4.4-5.7 8.2-10.6 8.5-10.9 2.8-2.5 46-62 61.3-84.5 33.4-48.9 78.9-121.1 102.7-163 1-1.7 5.7-10 10.5-18.5s9.8-17.2 11.1-19.2c1.3-2.1 2.4-4 2.4-4.2 0-.2 2.2-4.3 5-9.1s5-8.8 5-9c0-.2 1.7-3.4 3.9-7.2 2.1-3.7 5.5-10 7.6-13.8 2-3.9 5-9.3 6.5-12 1.5-2.8 5.8-10.9 9.5-18 3.7-7.2 7.1-13.5 7.5-14 .7-.9 11.7-22.2 30-58.3l7.3-14.4 2.4 5.9c1.2 3.2 2.7 6.7 3.3 7.8.5 1.1 4.6 11 9 22 4.5 11 8.7 21.3 9.5 23 .7 1.6 5.4 13.1 10.5 25.5 5 12.4 10.7 26.1 12.5 30.5 1.9 4.4 6.6 15.9 10.5 25.5 4 9.6 7.8 18.8 8.5 20.5.7 1.6 3.4 8.2 6 14.5 2.6 6.3 6.7 16 9 21.5 2.4 5.5 8.7 20.3 14 33 8 19.1 15.9 37.6 24 56 .7 1.6 3 6.8 5 11.5 2.1 4.7 4.5 10.3 5.5 12.5 1 2.2 6.1 13.7 11.3 25.5 5.2 11.8 11.3 25.5 13.6 30.3 2.2 4.9 4.1 9 4.1 9.2 0 .2 2 4.5 4.4 9.7 2.4 5.1 6.3 13.6 8.6 18.8 2.4 5.2 6.8 14.7 9.8 21 3 6.3 7.5 15.8 9.9 21 2.5 5.2 6.3 13.3 8.5 18 5.4 11.3 38 76.5 40.8 81.5 1.3 2.2 4.3 7.8 6.7 12.5 2.5 4.7 5.3 9.8 6.3 11.5.9 1.6 3.9 7 6.5 12 15 28.2 41.5 70.7 56.8 91 15.1 19.9 21 26.8 37.2 43 12.7 12.7 13.9 13.7 25 22.6 27.1 21.7 58.8 36.9 88.5 42.5 1.4.2 3.6.7 5 .9 1.4.3 3.4.7 4.5.9 8.7 1.7 33.7 2.3 46.5 1.1 20.7-1.8 43.4-6.7 61-13.1 57.9-21.2 110.6-63.6 159.7-128.4 7.2-9.6 29.6-42.2 34-49.5.6-1.1 4.5-7.4 8.6-14s8.2-13.4 9.1-15c.9-1.7 3-5.3 4.7-8 1.6-2.8 3.4-5.9 4-7 .5-1.1 3.5-6.5 6.5-12 21.6-39.4 36.9-78.8 40-102.9 4.1-31.5-6.8-50.2-38.7-67l-8.8-4.7-4.2 13.3c-14.9 47.1-32.3 86.2-52.3 117.3-6 9.3-14.7 21.7-16.6 23.5-.3.3-3.1 3.6-6.2 7.5-11.1 13.7-28.6 29.3-44 39.4-22 14.2-42.3 21.5-72.3 25.8-5.2.7-29.2.8-32.5.1-9.7-2.2-26.1-8.9-34.5-14.1-7.6-4.7-21.6-16-30.1-24.3-12.6-12.4-21-22-32.8-37.9-2.5-3.3-5.2-6.8-6-7.8-.9-.9-1.6-2-1.6-2.3 0-.3-1.3-2.3-3-4.4-1.6-2.1-3-4.1-3-4.4 0-.4-.5-1.2-1.1-1.9-.5-.7-2-2.7-3.2-4.6-1.2-1.9-2.9-4.5-3.7-5.7-6.2-9.3-22.9-38.1-32.4-55.7-5.3-9.9-27.6-54.4-27.6-55.1 0-.3-1.8-4.4-4.1-9.3-2.2-4.8-5.1-11.1-6.4-13.8-2-4.2-18.2-41.8-22.5-52-.7-1.7-1.9-4.4-2.6-6-.7-1.7-3.8-9.1-6.9-16.5-3.1-7.4-6.2-14.9-7-16.5-2.5-5.8-10.3-24.1-14-33-2-5-4.5-10.8-5.5-13-1-2.2-4.9-11.2-8.6-20-3.6-8.8-9.3-22.1-12.6-29.5-3.3-7.4-6.7-15.1-7.5-17-.8-1.9-2.8-6.3-4.4-9.8-1.6-3.5-2.9-6.5-2.9-6.8 0-.3-1.2-3.1-2.6-6.2-1.4-3.1-5.1-11.3-8.1-18.2-3-6.9-6.1-13.9-6.8-15.5-5.2-11.3-23.6-54-29.5-68.5-4-9.6-7.8-18.9-8.5-20.5-1.3-2.8-3.8-8.7-17.7-42.5-3.3-8-9.7-23.5-14.3-34.5-8.4-20.2-29.4-71-36.7-88.5-2.1-5.2-4.3-10.4-4.8-11.5-.5-1.1-3.2-7.6-6.1-14.5-2.8-6.9-5.7-13.9-6.4-15.5-.7-1.7-1.6-3.8-1.9-4.8-.4-1.2 2.6-7.6 8.5-18.5 5.1-9.2 9.5-17.2 9.9-17.7.4-.6 2.5-4.4 4.7-8.5 7.1-13.2 13.6-25.1 22.6-41 19.6-34.8 39.6-70.5 41.5-74 1.3-2.5 2.7-5 3.2-5.5.4-.6 1.9-3 3.2-5.5 1.4-2.5 8.9-15.5 16.8-29 7.8-13.5 16-27.7 18.3-31.5 2.2-3.9 5.8-9.8 7.8-13.2 2.1-3.4 11.8-19.4 21.5-35.5 9.6-16.1 19.1-31.6 20.9-34.3 3.5-5.4 26.3-41.4 28-44.3.5-.9 11.9-18.3 25.3-38.5 90.8-137.6 157.7-211.1 231.7-255 29.1-17.1 66.1-30.6 94.5-34.2 3-.4 6.4-.9 7.5-1.2 1.1-.2 9.4-.6 18.5-.7 14-.3 18.2 0 28.2 2 10.8 2.2 28.7 7.6 36.8 11.1 5.2 2.3 29 14 32.9 16.3l3.5 1.9 55.3-55.7c30.4-30.6 73.2-73.6 95-95.4 33-33 39.3-39.8 37.7-40.4-1-.4-4.8-2-8.4-3.7-6.9-3.1-34.9-14-40.3-15.6-1.8-.5-6.3-1.9-10.2-3.1-8.1-2.5-16.3-4.7-19.7-5.4-1.2-.3-3.8-.9-5.5-1.5-1.8-.5-3.3-.8-3.3-.5 0 .3-.8 0-1.7-.5-1-.5-3.4-1.2-5.3-1.5-1.9-.3-7.1-1.2-11.5-2-11.3-2.2-35.2-5.4-47-6.3-19.5-1.5-70.7-.7-78.5 1.2-.8.2-3.7.6-6.5 1-2.7.3-7.7 1-11 1.6-3.3.6-7.1 1.3-8.5 1.5-10.8 1.8-36.4 8.8-54 14.9-25.1 8.7-60.2 25.3-84.7 40.1-1.7 1-5.3 3.2-8 4.8-7.2 4.4-28 18.3-35 23.5-3.4 2.5-7.4 5.5-9 6.6-5.5 4-37 29.4-43.3 35-29.8 26.5-65.4 62-85.7 85.5-2.1 2.4-4.5 5.1-5.3 6-.8.9-4 4.5-7 8-3 3.6-5.7 6.7-6 7-.3.3-2.8 3.2-5.5 6.5-2.8 3.3-5.2 6.2-5.5 6.5-.3.3-4.1 5-8.5 10.5s-8.4 10.5-9 11.1c-1.4 1.5-6.6 8.2-9 11.4-1.1 1.5-8.1 10.8-15.5 20.6-7.5 9.9-15.8 21-18.5 24.9-2.7 3.8-5.3 7.4-5.8 8-4 4.7-39.4 57-54.2 80-11.7 18.2-38.5 61.5-44.5 72-.9 1.6-6.5 11.3-12.5 21.5-9.1 15.6-25.7 44.7-35.2 62-1.4 2.5-3.3 5.8-4.3 7.5-1 1.6-3 5.2-4.5 8-1.5 2.7-5.7 10.2-9.3 16.5-3.6 6.3-7.6 13.5-9 16-1.4 2.5-10.3 18.2-19.7 35-9.5 16.8-18.3 32.6-19.7 35.1-4.3 7.8-5.3 9.4-5.8 9.9-.3.3-1.2 1.8-2 3.5-1.6 3.3-9.4 17.1-11 19.5-.6.8-1.3 2.2-1.7 3-.4.8-2.2 4.2-4.1 7.5-1.9 3.3-4.3 7.6-5.4 9.5-1.1 1.9-3.8 6.8-6.1 10.7-2.2 4-4.2 7.1-4.4 6.9-.2-.1-4.1-9.5-8.7-20.7-14.2-34.6-41.7-101.2-43.1-104.4-.7-1.7-5.2-12.5-10-24-4.7-11.6-11.7-28.4-15.5-37.5-24.8-59.8-39.5-95-41-98.5-1-2.2-4.8-11.2-8.5-20-7.4-17.8-12-28.5-14-33-.7-1.7-6.8-15.6-13.5-31S904.7 419 903.3 416c-1.4-3-5.4-12-9-20-15.9-35.5-17.5-38.9-26.6-58-2.4-5.2-6.4-13.6-8.7-18.5-14-29.7-38.4-77.8-50.7-100-8.9-16-10.4-18.6-15-26.3-2.4-4.1-4.3-7.5-4.3-7.7 0-1.9-28.4-43.6-36-52.8-14.8-18.1-30.7-33.6-45.5-44.5-3.8-2.8-8.3-6.1-9.9-7.4-1.5-1.2-8.4-5-15.3-8.4C660 61 639.5 56 614.7 55.6c-3.8-.1-6.9 0-7 0z"/><path d="M399 814.2c-22.1 2-35.8 7.6-48 19.6-6.4 6.4-8.5 9.3-12.3 17.2-5.4 11.3-7.9 20.7-9.4 35-.6 6.2-.9 188.5-.3 200 .6 11.8 4.8 28.7 9.2 37.4 10.7 21.1 29.1 33.4 55.8 37.1 4.8.7 22.6.7 27.4 0 25.9-3.7 45.1-16.6 55.1-37.2 4.2-8.7 8.1-23 9.1-33.3.7-8.3.7-80.6 0-88.5-1.7-18.3-5.3-30.1-12.4-40.8-9.7-14.8-25-22.1-45.6-21.6-19.8.4-35.1 8.8-43.9 24.1-1.2 2.1-2.4 3.8-2.7 3.8-.3 0-.4-17-.4-37.8.1-31.4.4-38.9 1.8-44.7 3.8-16 11-21.9 26.6-22 6.9 0 9.3.4 12.8 2.3 10.4 5.4 14 13.4 14.3 31.9l.2 8.3H485l.1-4.3c1-49.6-21.6-80.7-62.4-85.6-12.9-1.6-14.7-1.6-23.7-.9zm20.1 175.2c8 3.4 13.1 11.3 14.5 22.2 1.2 9.9.8 74.2-.5 80.6-2.5 12-11 19.6-22.9 20.6-16.5 1.4-27-7.7-29-25.1-.9-7.6-.8-72.7.2-78 1.4-8.2 6.4-16.5 11.6-19.2 6.8-3.5 19.4-4.1 26.1-1.1zM662.4 814c-7.6 1.1-20.5 5.3-26.4 8.7-20 11.6-32.4 32.7-35.6 60.8-.8 7.6-.9 75.9 0 88.2 2.9 42 22.2 63.7 56.6 63.4 19.9-.1 34.4-7.5 44.5-22.6 2-3 3.7-5.5 3.8-5.5.6 0-.1 72.2-.7 77.4-.9 7.4-4 15.7-7.3 19.7-4.3 5.1-9.7 7.2-19.3 7.5-7.2.3-9.3 0-13.6-2-10.3-4.8-14.4-14.3-14.8-34.1l-.1-6-24.2-.2c-22.2-.2-24.3 0-24.4 1.5-.1 4.5.3 18.5.7 20.9.5 3.4 1.4 8.9 2.1 12.3 1.1 6.1 5.7 18 9.3 24 8.6 14.2 19.4 22.6 36.2 28.4 18 6.1 49.6 4.8 66.5-2.6 24-10.5 37.8-32.7 41-65.8.3-3.6.6-50.6.6-104.5 0-87.3-.2-99-1.7-107.4-2.7-14.8-6-23.2-13.8-34.6-8.1-12-22-21.3-37.8-25.5-9.5-2.4-31-3.5-41.6-2zm25.1 48.4c7.8 1.9 15.4 11.1 17.1 20.6 1 5.3 1.1 70.5.1 78.4-2 17.1-9.4 24.6-25.2 25.4-7.2.3-8.5.1-13.5-2.5-6.6-3.4-11.4-10-13.1-18.2-1.4-6.4-1.9-67.2-.7-78.7 1.5-13.9 7.6-22.5 17.9-25.2 3.9-1 13-.9 17.4.2zM1357.8 813.5c-.2.2-3.2.6-6.8.9-10 1.1-16.8 3.1-29 9-6.4 3-19.9 16.8-23.7 24.1-3.5 6.8-7.9 19.5-8.8 25.2-.3 2.1-.9 6.3-1.5 9.3-1.1 7-1.2 204.7 0 211.5.5 2.7 1.1 6.6 1.5 8.5 1.1 6.4 6.2 19.9 9.6 25.7 7.8 13.1 21.8 24 37.2 28.8 9.5 3 13.1 3.6 26.2 4 26.9.9 45.6-5.7 61.2-21.4 10.5-10.5 16.7-25.3 19.6-46.4 1.4-9.9 1.6-85.2.3-95.7-2.5-20.5-8.5-34.7-18.8-44.9-5.2-5.1-14.5-10.4-20.4-11.6-8.4-1.6-11.6-1.9-19.4-1.7-18.8.4-33.2 8.5-43.2 24.2l-2.9 4.5.4-39.5c.4-40.6.5-41.7 2.7-48.5 4-12.2 12.1-17.7 26-17.6 10.8 0 18.1 4.1 22.3 12.6 2.9 5.8 3.9 11 4.3 21.5.1 4.1.3 7.7.3 8 .1.3 11 .6 24.4.5h24.2l-.1-7.5c-.1-10-1-19.4-2.4-25.5-.6-2.8-1.3-5.7-1.5-6.5-.6-2.4-3.3-9.8-5.1-13.8-8.7-18.7-27.1-32.1-49.7-36.3-5.3-.9-26.2-2-26.9-1.4zm20.7 175.7c6.5 3.4 11.5 10.8 13.1 19.3.4 2.2.8 21.5.8 43 0 38.1-.1 39.1-2.3 44.8-4.5 11.4-11.3 15.9-24 16-14.4 0-22-5.8-25.7-19.8-2.1-7.7-2-77.9.1-86 2.2-8.4 5.9-13.4 12.5-16.8 5-2.6 6.2-2.8 14-2.5 5.1.3 9.7 1.1 11.5 2zM1621.7 814.7c-17.2 2.9-32.2 11.4-41.5 23.6-6.8 8.8-13.5 24.2-14.8 34-.4 2.3-1 6.2-1.4 8.6-.4 2.4-.9 14.6-.9 27.2l-.2 22.7h49.1v-5.7c0-25.8.9-42.9 2.4-47.2 4-11 12.4-16.5 25.1-16.3 12.9.1 20.4 5.7 24.1 18.2 1.8 6.2 2.7 26.9 1.3 33.2-.4 1.9-1 4.8-1.2 6.5-.7 4.8-5.4 18.1-8.7 24.5-5.3 10.5-17.2 26.8-30.5 42-12.3 14.1-15.7 17.8-18.5 21-1.8 1.9-5.8 6.9-8.9 11-3.1 4.1-5.8 7.7-6.1 8-.3.3-2.9 4.2-5.8 8.7-10.4 16.4-17.8 36.2-19.8 53.4-.3 3-.9 7.4-1.3 9.9s-.8 16.5-1 31.1l-.3 26.5 75.1.1h75.1v-48.3l-47.7.1c-26.3 0-48.5-.1-49.4-.3-1.4-.3-1.6-1.6-1.3-8.5.6-13.3 2-19.6 6.9-30.3 4.2-9.3 17.6-27.8 27.7-38.5 13.5-14.3 33.1-38.7 42.5-53 17.8-27 25.3-49.7 25.7-77.9.7-38.9-12.7-65.6-39.5-78.6-13.9-6.8-36.8-9.1-56.2-5.7z"/></svg>