<svg version="1" xmlns="http://www.w3.org/2000/svg" width="1348" height="1348" viewBox="0 0 1011.000000 1011.000000"><path d="M306 41.1c-9.7 1.2-14.4 2.5-26.9 7.6-7.2 2.9-15.1 7-21 11.1-11.4 7.7-12.6 8.7-26 21.1-5.7 5.3-11.9 10.7-13.7 12.1-1.8 1.4-7.2 7.2-11.9 13-4.8 5.8-10.4 12.3-12.5 14.5-3.8 4-14.1 19-19.3 28.1-1.5 2.7-5 8.7-7.8 13.4-7.1 11.7-11.4 21.4-16 35.5-6.8 21-8.2 28.6-8.3 43-.1 12.5 0 13.2 2.8 18.2 1.5 2.8 4.6 7 6.8 9.2 3.1 3.3 4.6 4.1 7.4 4.1 5.2 0 7.5-3 11.8-15.5 2-6.1 4.9-13 6.2-15.5 3.1-5.6 8.3-16.4 12-25 1.6-3.6 4.3-8.1 6.1-10 1.7-1.9 4-5.3 5-7.5s3.8-6.2 6.2-8.8c2.5-2.6 5.6-6.5 7-8.6 3.5-5.2 12.2-13.2 17.9-16.5 7.6-4.4 22.8-11.4 27.9-12.9 6.2-1.9 15.5-1.2 21.6 1.6 4.5 2 4.8 2.3 4.3 5.1-.3 1.6-2.5 6.1-4.8 10-2.2 3.9-5.9 10.2-8.1 14.1-2.1 3.8-6.3 11-9.2 16-12.6 21.5-23.7 40.4-35.3 60.5-6.8 11.8-15.8 27.3-20 34.5-4.1 7.1-9 15.5-10.7 18.5-1.8 3-5.8 10-9 15.5s-6.6 11.3-7.5 13c-3.3 5.8-41.2 71.1-46.4 80-5.6 9.5-15.8 27.1-25.9 44.5-3.3 5.8-7.9 13.6-10.3 17.5-2.3 3.8-5 8.6-5.9 10.6-2 4.3-2.1 4 11.3 26.9 4.6 8 10.9 18.8 14 24 5.8 10 6.1 10.6 24.9 43 6.5 11.3 15.7 27 20.2 35 4.6 8 9.6 16.5 11.1 19s6.2 10.6 10.5 18 10.8 18.7 14.5 25c3.7 6.3 12.7 21.8 20 34.5 7.3 12.6 14.5 25 16 27.5 12.6 21.1 33.3 57.3 34.3 60.1 2.1 5.4-3.6 12.7-19.6 25.2-10.2 8-18.4 13.2-22 14.1-1.6.4-4.5 1.7-6.5 3s-5.4 2.7-7.5 3c-2 .4-5.2 2-7.1 3.6-7.2 6.4-35.9 9.8-58 7-10.1-1.3-30.5-7.4-34.8-10.4-4.2-2.9-8.2-2.1-12.3 2.6-4.2 4.8-62.2 64.4-64.4 66.2-.7.6-4.8 4.3-9 8.2-4.2 3.8-8.9 7.8-10.4 8.8-4 2.5-5.4 5.9-3.5 8.8 2.4 3.7 18.1 9.5 44.3 16.5 11.5 3 15.5 3.6 35.1 4.7 13.8.8 24.9.9 29.5.4 16.9-1.9 22.8-3 29.9-5.3 4.1-1.3 13.1-4.2 20-6.4 15.7-5 19.9-6.8 30.4-13 4.7-2.7 10.3-5.5 12.5-6.2 2.3-.7 5.8-2.6 7.9-4.3 5.2-4.4 11.3-8.2 17.4-11 2.9-1.3 6.2-3.3 7.3-4.6 1.1-1.2 8.3-7.3 16-13.5 7.7-6.2 17.8-15 22.5-19.5 4.7-4.6 10.9-10.2 13.9-12.4l5.4-4.1h153.6c84.5 0 154.7.3 156.1.8 1.5.4 3.7 2.7 5.5 5.7 1.7 2.8 9.7 14.8 17.9 26.6 12 17.4 17 23.6 25.9 32.4 12.4 12.3 18.5 17 32.6 25.2 9.1 5.2 11.1 5.9 24.7 8.7 8.1 1.7 16.4 3.1 18.4 3.1 5.3 0 29-4.7 38.4-7.7 4.4-1.4 10.6-3.8 13.6-5.3 3-1.6 8.4-4.2 12-5.9 3.6-1.7 9.6-5 13.3-7.4 8.9-5.7 37.6-34.1 42.4-42.2 2-3.3 5.1-7.8 6.9-10 1.7-2.2 4.3-6.3 5.7-9 3.9-7.7 21.1-36.3 25.7-42.7 8.3-11.5 18.8-49.8 16.2-58.6-1.4-4.7-12.1-16.6-17.3-19.2-3.9-2-8.5-2.6-10.5-1.2-1.9 1.2-3.4 4.9-3.4 8.2 0 4-16.5 41.1-20.7 46.7-1.8 2.3-4.2 6.1-5.4 8.5-3.6 7.2-10.7 16.4-16.7 21.9-8.3 7.6-18.9 14.7-24.2 16.3-2.6.8-6.4 2.3-8.6 3.4-4.5 2.2-14.7 4.2-22 4.2-6.7 0-14.8-2.2-23.8-6.5-6.2-2.9-8.3-4.6-12-9.5-2.5-3.3-4.6-6.6-4.6-7.3 0-1.2 7.5-14.8 21-37.7 4-6.9 9.1-15.7 11.3-19.5 2.1-3.9 6.3-11.1 9.2-16 2.9-5 10.8-18.5 17.5-30 13.6-23.4 12.9-22.2 37.5-64.5 9.8-16.8 22.1-37.9 27.3-47 5.2-9.1 19.6-33.8 32-55 12.3-21.2 25.1-43.2 28.5-49 3.3-5.8 8.4-14.5 11.4-19.4 2.9-4.9 5.3-10.1 5.3-11.5 0-3-5-12-36.5-65.6-5.5-9.4-15.5-26.6-25.8-44.5-3.3-5.8-7-12.1-8.2-14-1.2-1.9-5.1-8.7-8.7-15-3.6-6.3-9.6-16.7-13.3-23-3.7-6.3-9.2-15.8-12.3-21-3-5.2-7-12-8.7-15-3-5.2-11.9-20.5-23.2-40-2.7-4.7-8.4-14.4-12.5-21.5-4.1-7.2-11.5-19.8-16.3-28-10.1-17.3-13.7-24.3-13.3-25.4.8-2.2 18.5-17.3 23.3-20 3-1.7 7.9-4.4 10.9-6.1 13.7-7.7 43.6-14.6 59.1-13.8 9.2.6 20.5 4.5 29.5 10.3 7 4.5 11.3 5.3 15.4 3 1.7-.9 7.2-6.2 12.1-11.7 5-5.5 13.5-14.6 19-20.2s18.1-18.6 28-28.7c9.9-10.2 20.5-20.7 23.5-23.4 8.1-7.3 9.2-10.2 5.1-13.9-2.6-2.3-25.9-10.1-39.1-13.1-4.1-.9-9.4-2.3-11.8-3.1-2.4-.8-6.2-1.3-8.5-1.2-2.3 0-8.7-.2-14.3-.7-13.5-1.1-47.5 1.1-57.3 3.6-4.1 1-8.3 1.9-9.3 1.9s-4 1.1-6.6 2.4c-2.6 1.4-10.4 4.7-17.4 7.5-7 2.7-15.4 6.8-18.6 9-3.2 2.2-9.8 6-14.7 8.5-11.5 6.1-26 16.7-42.3 31.3-7.4 6.5-15.4 13.6-18 15.8l-4.5 4-155.6.3c-106.5.2-156.7 0-159.2-.8-2.8-.8-3.8-1.7-4.2-3.8-.8-3.5-18.7-30.3-20.8-31-.5-.2-.9-.8-.9-1.4 0-.6-1.7-3.1-3.9-5.7-2.1-2.5-5-6.4-6.4-8.7-3.8-6.2-27.7-24.6-33.6-26-1.4-.4-5.1-1.8-8.1-3.1-10.5-4.8-19.7-5.9-33-4.2zm26 6.9c20.6 5.4 41 21.8 57.5 46.3 14.4 21.5 46 83.7 66.3 130.7 1.1 2.5 5 11.2 8.7 19.5 3.7 8.2 7.8 17.5 9 20.5 4.5 10.8 13.5 32.5 14.5 34.5.5 1.1 2.7 6.5 5 12s4.5 10.9 5 12c.8 1.9 2.9 6.8 12 29 2.3 5.5 4.5 10.9 5 12 .5 1.1 2.7 6.5 5 12 17.6 42.9 16.6 41 21 41 3.6 0 4.4-1.1 16.2-22.5 2.8-4.9 7.5-13.2 13-23 3-5.1 10.1-17.8 13-23 1.4-2.5 5.9-10.4 10-17.5 4.1-7.2 10.3-18 13.7-24 3.4-6.1 7.2-12.6 8.3-14.5 1.2-1.9 4.6-7.8 7.6-13 3.1-5.2 6.8-11.3 8.3-13.5 1.4-2.2 7.4-11.2 13.2-20 31.2-47.5 54.2-77 84.2-108.4 19-19.8 25.2-25.9 33.5-32.6 10.1-8.2 32.3-24.5 33.5-24.5.3 0 2.5-1.3 4.8-2.9 6-4.1 28.9-15.8 36.6-18.8 13.1-5 28.7-9.1 42.1-11.1 5.5-.8 46.6-.9 53.5 0 18.7 2.2 44.1 9.3 54.3 15.2l3.4 1.9-42.4 42.4c-23.2 23.3-43.1 42.6-44 42.9-.9.3-5.2-1.1-9.5-3.2-9.9-4.6-10.8-5-16.7-6.9-11.5-3.7-29.2-4-44.1-.8-40.4 8.7-77.9 36.9-119.6 89.9-24.3 30.9-63.7 91.9-101.1 156.4-15.3 26.3-19.9 34.4-29.8 52.5-10.4 19-18.3 33.1-19.1 34-1.8 1.8-.9 8.4 2.2 15.6 1.7 4.1 3.7 8.7 4.4 10.4.7 1.6 2.5 5.9 3.9 9.5 1.5 3.6 3.1 7.4 3.6 8.5.5 1.1 2.7 6.5 5 12s4.5 10.9 5 12c.5 1.1 2.8 6.5 5 12 14.3 34.5 20.6 49.6 26.5 63 3 6.6 8.1 18.3 11.5 26 3.4 7.7 6.8 15.3 7.5 17 .7 1.6 3 6.8 5 11.5s4.2 9.8 5 11.5c.7 1.6 5.2 12.2 10 23.5 4.7 11.3 9.3 21.9 10.1 23.7.8 1.7 1.4 3.4 1.4 3.8 0 1.5 13.3 30.5 21.5 46.6 27.2 54.2 49.3 81.4 75.5 93 4.9 2.1 6.8 2.4 18.5 2.4 14.4-.1 20.8-1.4 33-7 14-6.4 26.4-16.4 38.4-30.9 9.1-11.1 23.4-39 30.3-59.1 1.1-3.3 2.7-7.2 3.5-8.7l1.3-2.8 4.9 3c2.7 1.7 6 4.7 7.5 6.8 3 4.4 4.9 13.1 4 18.7-1 6.7-8.1 26.9-12.4 35.7-2.3 4.6-4.9 9.9-5.8 11.8-1 1.9-2.9 5.4-4.4 7.7-1.6 2.3-2.8 4.6-2.8 5.1 0 1.3-22.1 34.2-28.4 42.2-12 15.4-17.2 21-27.6 30.1-17.4 15.1-35.3 25.6-51.5 30.2-11.9 3.4-13.4 3.7-24.4 4.7-22.2 2.1-41.7-2.8-60.6-15.2-10.2-6.7-20.5-16-28.7-25.8-2.5-3-5.9-7.1-7.5-9-6.4-7.6-22.4-33.3-30.3-48.5-4.5-8.8-10.4-19.9-13.1-24.7-2.7-4.7-6.8-12.6-9-17.5-2.3-4.8-6.6-14-9.6-20.3-3-6.3-8.4-17.8-12-25.5-3.5-7.7-7.8-16.9-9.5-20.5-3-6.2-7.2-15.7-14-31.5-1.7-3.9-4.1-9.4-5.4-12.3-1.3-2.9-3.6-8-5-11.5-1.4-3.4-3.2-7.6-3.9-9.2-.8-1.7-2.6-5.9-4.1-9.5-1.4-3.6-3.4-8.3-4.4-10.5-3.2-7.4-5.9-14-10.8-26-24.7-60.3-25.5-62.1-28.1-63-4.2-1.3-6.6 2-18 24.4-6.2 12.1-13.6 26.2-16.5 31.3-2.9 5.1-8.4 14.9-12.3 21.8-15.4 27.6-15.9 28.4-39.3 65.5-6.3 9.9-14.3 22.1-17.9 27.2-3.6 5-8.4 11.8-10.6 14.9-4 5.8-23.3 31.6-32 42.9-2.6 3.3-9.3 11.2-14.8 17.5-5.6 6.3-11.2 12.8-12.5 14.4-3.6 4.8-40.5 41.5-47.8 47.6-3.6 3-7.6 6.4-8.8 7.6-5.1 5-37.5 27.5-48.7 33.8-29.4 16.8-67.3 29.7-91.9 31.2-4.7.2-11 .7-14 1-7.2.7-5.8.7-20-.5-6.9-.5-16.1-1.7-20.5-2.6C52 956.1 21 945.4 21 942.8c0-.5 5-5.8 11.2-11.6 6.1-5.9 22.7-22 36.7-35.7 29-28.4 39.1-37.5 41.8-37.5 1 0 5 1.3 8.8 2.9 18.2 7.4 41.6 10.2 60 7.2 10.4-1.7 10.2-1.7 21-5.1 26.8-8.6 53.1-25.6 81.3-52.5 12.7-12.1 27.3-28.1 36.7-40.1 3.8-4.9 7.2-9.1 7.5-9.4 1.2-1 24.6-33.5 27.5-38.1 2.4-3.9 12-18 25.5-37.9 1.5-2.2 6.9-10.4 20.5-31.5 1.7-2.8 5.8-9.3 9-14.5 3.2-5.2 6.5-10.6 7.4-12 .8-1.4 2.2-3.9 3.1-5.5.9-1.7 4.8-8.4 8.6-15 12.1-20.7 42.5-79.7 43.8-85.1.5-1.7-1.8-8.2-8-22.7-4.7-11.1-10.4-24.5-12.6-29.7-2.2-5.2-4.6-10.9-5.3-12.5-3-7.1-7.8-18.2-9-21-2.2-4.8-6-14.1-19-46.5-11.6-28.6-14.6-35.9-18.1-43.7-.8-1.7-1.4-3.3-1.4-3.6 0-.6-14.1-30.9-22.5-48.2-2.9-6.1-7.6-16.2-10.5-22.5-2.9-6.3-9.1-19.6-13.7-29.5-4.7-9.9-9.3-20.1-10.4-22.7-2.2-5.6-6.2-13.6-9.9-19.8-8.8-14.8-10.8-18-14.5-23.1-10.2-13.9-17.5-20.8-27.4-25.8-6.4-3.3-16.7-5.2-21.6-4.1-2.2.5-5.4 1-7.1 1-5.4 0-16.6 4.2-25.4 9.4-14.4 8.5-33.5 29.2-43.3 46.9-1.5 2.6-3.3 5.8-4.1 7-2.4 3.9-15.1 29.1-16.6 33.1-.8 2.2-2.7 6.7-4.2 10-2.4 5.6-3 6.2-6.5 6.9-7 1.4-7.6 1.3-9.4-1.8-3.8-6.3-4.1-14.9-1.3-34.3 2.3-16.7 6.3-29 15.7-48.2 6.8-14 23-39.6 29.4-46.5 1-1.1 3.3-4 5.1-6.5 6.7-9.2 32.9-36.7 43.2-45.2 8-6.7 20.5-15.5 25.6-18 2.7-1.4 5.8-3 6.9-3.6C291 47.5 315.9 43.8 332 48zm33.2 368.7c7.3 2.7 11.9 6.3 15.7 12.2 6.1 9.4 6.2 11.1 5.9 72.3l-.3 55.3-2.5 6c-3.3 8.1-9.8 14.6-17.5 17.5-8.7 3.3-25.4 3.4-34 .1-7.9-3.1-14.5-9.8-17.5-17.7-2.4-6.4-3.6-17.1-2.2-19.2.7-1 3.5-1.4 9.7-1.3 4.8 0 8.9.2 9.1.4.3.2.9 3 1.4 6.2.6 3.4 1.9 7 3.5 9 6.3 8.3 21 6.7 26.3-2.8 1.4-2.7 1.7-6.5 2-23.7.1-11.3-.2-21.1-.7-21.9-1.3-1.9-4.3-.6-6.6 3-1.1 1.7-4.1 4.1-6.6 5.4-13.7 7.1-30.1 1.9-35.8-11.4-3.4-8.1-4.3-17.7-3.9-41.5.5-26.7 1.6-30.4 10.8-40 7.7-8 15.5-10.8 28.5-10.3 5.8.2 11.1 1.1 14.7 2.4zm333.3-.5c11.5 3.7 18.3 11.7 21.9 25.5 1.9 7.3 2 11.5.4 13.1-1.7 1.7-17.2 1.6-18.7-.1-.6-.8-1.5-3.7-2.1-6.6-1.9-10.3-5.2-13.1-15.4-13.1-6.8 0-7.4.2-10.3 3.2-1.8 1.8-3.7 4.6-4.2 6.1-1.6 4.2-1.4 40.8.2 43.1 1.2 1.6 1.8 1.2 6.9-3.8 7.2-6.9 13.4-8.7 23.1-6.7 11.1 2.3 16.1 7.1 19.7 19.2 1.7 5.6 2 9.5 2 30.9 0 27.3-.7 31.5-6.2 40.7-3.4 5.7-9.8 10.8-16.6 13.1-5.4 1.8-17.2 2.5-23.6 1.3-17.2-3.2-25.8-12.3-29.1-31.1-2.1-11.9-2.1-88.9 0-103.5 1.7-11.9 5.9-21.1 11.8-25.8 9-7.3 27.2-9.8 40.2-5.5zm-467.7.3c8.2 2.5 13.1 6.9 17.4 15.5 4.3 8.7 6.8 19.2 5.2 21.8-.9 1.4-2.7 1.7-9.9 1.7h-8.9L233 449c-3-11.9-5.8-14.4-16-14.5-7.4 0-10.5 1.7-13.9 7.6-1.8 3.2-2 5.4-2.2 23.8-.1 17.2.1 20.6 1.5 21.9 1.4 1.4 2 1.1 6.9-3.5 2.9-2.8 6.2-5.3 7.3-5.6 9.2-2.7 10.6-2.8 17.2-1.2 8.2 2.1 11.4 4.3 14.8 10.1 4.7 7.9 5.4 13 5.4 38.1 0 24.7-.7 30.8-4.6 38.5-5.3 10.6-13.1 15.9-26.2 17.9-15.2 2.3-30.3-3-37.3-13.1-7.1-10.2-7.3-11.6-7.7-65.5-.3-48.6.2-58.6 3.4-67.8 3.3-9.4 10.4-16.1 20-19 6.6-2.1 22.5-2.1 29.2-.2zm602 0c17.1 5.1 26.7 26.6 21.8 48.9-3.7 16.3-11.5 29.7-27.6 47.1-17.3 18.8-22.8 27.6-23.7 38.3-.8 9.9-1.1 9.8 23.1 9.4 11.3-.2 22-.1 23.6.3l3.1.7-.3 9.1-.3 9.2-35.4.3-35.3.2.4-16.2c.4-14.2.8-17.3 3.1-24.3 3.2-9.8 9.2-18.7 22.1-33 12.1-13.4 20.9-26.5 23.6-35.1 2.6-8.6 2.8-24.6.3-29.9-2.3-4.8-8.7-7.9-15.2-7.3-10 1-14.4 7.8-14.2 22 .1 12.5-.1 12.8-10.4 12.8-10.9 0-10.9 0-9.6-16.3 1.1-14.1 2-17.6 6-23.9 6.1-9.6 15.1-13.7 30.2-13.8 5.7 0 11.6.6 14.7 1.5z"/><path d="M339.5 437.2c-5 3.9-5.5 6.8-5.5 30.1 0 24 .7 27.3 6.3 30.7 2.3 1.4 5 2 9.4 2 5.2 0 6.6-.4 9.3-2.6 5.4-4.6 6-7.5 6-30.1 0-22.5-.5-25-5.9-29.6-2.8-2.4-4.1-2.7-10-2.7-5.5 0-7.4.4-9.6 2.2zM676.8 498c-2 1.1-4.5 3.5-5.7 5.3-2 3.2-2.1 4.8-2.1 26.3 0 21.1.2 23.2 2 26.2 3.2 5.2 7.6 7.4 13.8 6.9 6.3-.4 9.9-2.8 12.7-8.3 1.8-3.4 2-6.3 2.3-23.2.4-25.6-1.3-30.9-10.7-34.1-4.8-1.6-8-1.3-12.3.9zM208.2 498c-1.8 1.1-4.1 3.4-5.2 5.2-1.8 3-2 5.1-2 26.3 0 21.2.2 23.3 2 26.3 3.2 5.3 7.5 7.4 14.3 6.9 6.6-.4 10.3-2.6 12.9-7.8 1.6-2.9 1.8-6.4 1.8-24.9 0-19-.3-22-1.9-25.7-3.5-7.5-14.6-10.7-21.9-6.3z"/></svg>